<svg height="512" viewBox="0 0 128 128" width="512" xmlns="http://www.w3.org/2000/svg" xmlns:xlink="http://www.w3.org/1999/xlink"><linearGradient id="a" gradientUnits="userSpaceOnUse" x1="102.433" x2="23.981" y1="112.706" y2="34.254"><stop offset="0" stop-color="#00b7f0"/><stop offset="1" stop-color="#fb3d80"/></linearGradient><path d="m119.09 92.932v-8.744a1.749 1.749 0 0 0 -1.75-1.75h-4.666a1.749 1.749 0 0 0 .59-1.761l-1.448-5.926v-.008l-1.87-7.643-2.764-11.315a1.751 1.751 0 0 0 -3.4.831l2.349 9.616-9.269 2.265-6.73-27.544 9.27-2.264 1.41 5.768a1.75 1.75 0 1 0 3.4-.831l-1.825-7.468a1.752 1.752 0 0 0 -2.115-1.285l-10.5 2.566v-6.262a1.751 1.751 0 0 0 -1.75-1.75h-13.341v-6.327a1.75 1.75 0 0 0 -1.75-1.75h-17.383a1.75 1.75 0 0 0 -1.748 1.75v59.338h-13.885v-7.894h9.925a1.75 1.75 0 0 0 0-3.5h-9.925v-40.191h9.925a1.75 1.75 0 0 0 0-3.5h-11.675a1.75 1.75 0 0 0 -1.75 1.75v7.964l-12.18-2.031a1.75 1.75 0 0 0 -2.014 1.439l-1.741 10.445a1.75 1.75 0 0 0 3.452.576l1.454-8.72 10.765 1.795-5.382 32.284-10.769-1.795 1.484-8.905a1.75 1.75 0 0 0 -3.452-.575l-1.767 10.627v.007l-1.555 9.316a1.744 1.744 0 0 0 .1.908h-4.15a1.749 1.749 0 0 0 -1.75 1.75v8.744a1.75 1.75 0 0 0 1.75 1.75h7.824v10.218a1.75 1.75 0 0 0 1.75 1.75h9.979a1.75 1.75 0 0 0 1.75-1.75v-10.218h4.952a1.75 1.75 0 1 0 0-3.5h-24.505v-5.244h103.18v5.244h-63.143a1.75 1.75 0 0 0 0 3.5h43.59v10.218a1.75 1.75 0 0 0 1.75 1.75h9.979a1.75 1.75 0 0 0 1.75-1.75v-5.985a1.75 1.75 0 0 0 -3.5 0v4.232h-6.479v-8.465h17.8a1.75 1.75 0 0 0 1.753-1.75zm-90.627 10.215h-6.479v-8.465h6.479zm80.985-23.339-9.269 2.264-.618-2.529 9.269-2.265zm-2.487-10.18 1.039 4.25-9.27 2.264-1.038-4.249zm-13.085 1.394 2.789 11.413h-21.984v-4.635h11.585v.976a1.75 1.75 0 0 0 3.5 0v-24.576zm-7.61 3.278h-11.585v-3.447h11.585zm-15.085-49.447v19.307a1.75 1.75 0 0 0 3.5 0v-11.233h11.585v34.426h-11.585v-10.708a1.75 1.75 0 1 0 -3.5 0v9.42h-13.881v-41.212zm-40.987 51.454-.978 5.866-10.765-1.794.978-5.867zm6.221-16.035v22.166h-3.695zm20.885 22.166v-12.873h13.881v12.873zm-13 12.244a1.75 1.75 0 0 1 0-3.5h1.261a1.75 1.75 0 0 1 0 3.5zm26.883-44.82v-.149a1.75 1.75 0 0 1 3.5 0v.149a1.75 1.75 0 1 1 -3.5 0zm-10.991-19.483a1.751 1.751 0 0 1 1.75-1.75h4.6a1.75 1.75 0 1 1 0 3.5h-4.6a1.751 1.751 0 0 1 -1.75-1.75zm8.1 44.426a1.751 1.751 0 0 1 -1.75 1.75h-4.6a1.75 1.75 0 0 1 0-3.5h4.6a1.75 1.75 0 0 1 1.746 1.75zm8.441-37.313a1.751 1.751 0 0 1 1.75-1.75h3.989a1.75 1.75 0 0 1 0 3.5h-3.993a1.751 1.751 0 0 1 -1.75-1.75zm26.754 10.521a1.75 1.75 0 0 1 2.113 1.287l.133.549a1.75 1.75 0 1 1 -3.4.829l-.134-.549a1.749 1.749 0 0 1 1.284-2.116zm-52.582-11.634a1.751 1.751 0 0 1 -1.75 1.75h-4.6a1.75 1.75 0 0 1 0-3.5h4.6a1.751 1.751 0 0 1 1.75 1.75zm0 6.255a1.75 1.75 0 0 1 -1.75 1.75h-4.6a1.75 1.75 0 0 1 0-3.5h4.6a1.751 1.751 0 0 1 1.75 1.75zm-31.714 12.013.216-1.29a1.75 1.75 0 0 1 3.452.576l-.215 1.29a1.752 1.752 0 0 1 -1.725 1.463 1.8 1.8 0 0 1 -.29-.025 1.75 1.75 0 0 1 -1.438-2.014zm7.174 11.443a1.749 1.749 0 0 1 -1.439-2.013l3.186-19.108a1.75 1.75 0 1 1 3.452.575l-3.186 19.108a1.75 1.75 0 0 1 -1.724 1.463 1.782 1.782 0 0 1 -.289-.025z" fill="url(#a)"/></svg>